<?xml version="1.0" encoding="UTF-8" standalone="no"?>
<!DOCTYPE svg PUBLIC "-//W3C//DTD SVG 1.1//EN"
 "http://www.w3.org/Graphics/SVG/1.1/DTD/svg11.dtd">
<!-- Generated by graphviz version 2.43.0 (0)
 -->
<!-- Title: %3 Pages: 1 -->
<svg width="1255pt" height="315pt"
 viewBox="0.00 0.00 1255.28 315.28" xmlns="http://www.w3.org/2000/svg" xmlns:xlink="http://www.w3.org/1999/xlink">
<g id="graph0" class="graph" transform="scale(1 1) rotate(0) translate(4 311.28)">
<title>%3</title>
<polygon fill="white" stroke="transparent" points="-4,4 -4,-311.28 1251.28,-311.28 1251.28,4 -4,4"/>
<!-- &#45;3856505187393024713 -->
<g id="node1" class="node">
<title>&#45;3856505187393024713</title>
<ellipse fill="none" stroke="black" cx="117.64" cy="-117.64" rx="117.78" ry="117.78"/>
<text text-anchor="middle" x="117.64" y="-113.94" font-family="Helvetica,sans-Serif" font-size="14.00">train_and_evaluate_fold</text>
</g>
<!-- 466533539383454082 -->
<g id="node2" class="node">
<title>466533539383454082</title>
<polygon fill="none" stroke="black" points="144.64,-307.28 90.64,-307.28 90.64,-271.28 144.64,-271.28 144.64,-307.28"/>
</g>
<!-- &#45;3856505187393024713&#45;&gt;466533539383454082 -->
<g id="edge1" class="edge">
<title>&#45;3856505187393024713&#45;&gt;466533539383454082</title>
<path fill="none" stroke="black" d="M117.64,-235.53C117.64,-244.79 117.64,-253.45 117.64,-260.96"/>
<polygon fill="black" stroke="black" points="114.14,-261.1 117.64,-271.1 121.14,-261.1 114.14,-261.1"/>
</g>
<!-- &#45;8625982413456629063 -->
<g id="node3" class="node">
<title>&#45;8625982413456629063</title>
<ellipse fill="none" stroke="black" cx="370.64" cy="-117.64" rx="117.78" ry="117.78"/>
<text text-anchor="middle" x="370.64" y="-113.94" font-family="Helvetica,sans-Serif" font-size="14.00">train_and_evaluate_fold</text>
</g>
<!-- 116517860545146143 -->
<g id="node4" class="node">
<title>116517860545146143</title>
<polygon fill="none" stroke="black" points="397.64,-307.28 343.64,-307.28 343.64,-271.28 397.64,-271.28 397.64,-307.28"/>
</g>
<!-- &#45;8625982413456629063&#45;&gt;116517860545146143 -->
<g id="edge2" class="edge">
<title>&#45;8625982413456629063&#45;&gt;116517860545146143</title>
<path fill="none" stroke="black" d="M370.64,-235.53C370.64,-244.79 370.64,-253.45 370.64,-260.96"/>
<polygon fill="black" stroke="black" points="367.14,-261.1 370.64,-271.1 374.14,-261.1 367.14,-261.1"/>
</g>
<!-- &#45;6196575676504879929 -->
<g id="node5" class="node">
<title>&#45;6196575676504879929</title>
<ellipse fill="none" stroke="black" cx="623.64" cy="-117.64" rx="117.78" ry="117.78"/>
<text text-anchor="middle" x="623.64" y="-113.94" font-family="Helvetica,sans-Serif" font-size="14.00">train_and_evaluate_fold</text>
</g>
<!-- 9009394025543028786 -->
<g id="node6" class="node">
<title>9009394025543028786</title>
<polygon fill="none" stroke="black" points="650.64,-307.28 596.64,-307.28 596.64,-271.28 650.64,-271.28 650.64,-307.28"/>
</g>
<!-- &#45;6196575676504879929&#45;&gt;9009394025543028786 -->
<g id="edge3" class="edge">
<title>&#45;6196575676504879929&#45;&gt;9009394025543028786</title>
<path fill="none" stroke="black" d="M623.64,-235.53C623.64,-244.79 623.64,-253.45 623.64,-260.96"/>
<polygon fill="black" stroke="black" points="620.14,-261.1 623.64,-271.1 627.14,-261.1 620.14,-261.1"/>
</g>
<!-- &#45;5151574396458638360 -->
<g id="node7" class="node">
<title>&#45;5151574396458638360</title>
<ellipse fill="none" stroke="black" cx="876.64" cy="-117.64" rx="117.78" ry="117.78"/>
<text text-anchor="middle" x="876.64" y="-113.94" font-family="Helvetica,sans-Serif" font-size="14.00">train_and_evaluate_fold</text>
</g>
<!-- 2793654271177303245 -->
<g id="node8" class="node">
<title>2793654271177303245</title>
<polygon fill="none" stroke="black" points="903.64,-307.28 849.64,-307.28 849.64,-271.28 903.64,-271.28 903.64,-307.28"/>
</g>
<!-- &#45;5151574396458638360&#45;&gt;2793654271177303245 -->
<g id="edge4" class="edge">
<title>&#45;5151574396458638360&#45;&gt;2793654271177303245</title>
<path fill="none" stroke="black" d="M876.64,-235.53C876.64,-244.79 876.64,-253.45 876.64,-260.96"/>
<polygon fill="black" stroke="black" points="873.14,-261.1 876.64,-271.1 880.14,-261.1 873.14,-261.1"/>
</g>
<!-- 1314047117983405324 -->
<g id="node9" class="node">
<title>1314047117983405324</title>
<ellipse fill="none" stroke="black" cx="1129.64" cy="-117.64" rx="117.78" ry="117.78"/>
<text text-anchor="middle" x="1129.64" y="-113.94" font-family="Helvetica,sans-Serif" font-size="14.00">train_and_evaluate_fold</text>
</g>
<!-- &#45;8302354021743161922 -->
<g id="node10" class="node">
<title>&#45;8302354021743161922</title>
<polygon fill="none" stroke="black" points="1156.64,-307.28 1102.64,-307.28 1102.64,-271.28 1156.64,-271.28 1156.64,-307.28"/>
</g>
<!-- 1314047117983405324&#45;&gt;&#45;8302354021743161922 -->
<g id="edge5" class="edge">
<title>1314047117983405324&#45;&gt;&#45;8302354021743161922</title>
<path fill="none" stroke="black" d="M1129.64,-235.53C1129.64,-244.79 1129.64,-253.45 1129.64,-260.96"/>
<polygon fill="black" stroke="black" points="1126.14,-261.1 1129.64,-271.1 1133.14,-261.1 1126.14,-261.1"/>
</g>
</g>
</svg>
